# Blender v2.79 (sub 0) OBJ File: 'slide_baseless.obj'
# www.blender.org
mtllib slide_baseless.mtl
v -2.500000 0.010000 2.500000
v -2.500000 11.040000 2.000002
v -2.500000 11.040000 2.500002
v -2.500000 0.010000 2.000000
v -2.000000 0.010000 2.000000
v -2.000000 0.010000 2.500000
v -2.000000 7.309999 2.000001
v -2.000000 7.309999 2.500001
v -2.000000 7.539999 2.500001
v -2.000000 11.040000 2.500002
v 2.800000 11.040000 2.800002
v -2.800000 11.040000 2.800002
v -2.500000 11.040000 -2.499998
v -2.800000 11.040000 -2.799998
v 2.800000 11.040000 -2.799998
v -2.800000 11.270000 -2.799998
v 2.800000 11.270000 -2.799998
v -2.500000 11.270000 -2.499998
v -2.000000 11.270000 -1.999998
v -2.000000 11.270000 2.000002
v -2.500000 11.270000 2.500002
v -2.800000 11.270000 2.800002
v 2.800000 11.270000 2.800002
v 2.500000 11.270000 -2.499998
v 2.500000 11.270000 2.500002
v 2.000000 11.270000 -1.999998
v 2.000000 11.270000 2.000002
v -0.000000 11.270000 0.000002
v -0.000000 13.380000 0.000002
v 2.500000 11.040000 -1.999998
v 2.500000 11.040000 2.500002
v 2.000000 11.040000 2.500002
v 2.000000 11.040000 -2.499998
v -2.000000 11.040000 -1.999998
v -2.000000 11.040000 -2.499998
v -2.000000 7.540000 -2.499999
v -2.000000 7.310000 -2.499999
v -2.500000 0.010000 -2.500000
v -2.000000 0.010000 -2.500000
v -2.500000 0.010000 -2.000000
v -2.000000 0.010000 -2.000000
v -2.000000 7.310000 -1.999999
v -2.500000 7.310000 -1.999999
v -2.500000 7.540000 -1.999999
v -2.500000 11.040000 -1.999998
v -2.000000 7.540000 -1.999999
v -2.125000 9.180000 -1.999998
v -2.375000 9.180000 -1.999998
v -2.375000 9.290000 -1.999998
v -2.125000 9.290000 -1.999998
v -2.325000 9.180000 -0.999999
v -2.375000 9.180000 -0.999999
v -2.375000 9.180000 -0.749999
v -2.375000 9.180000 0.000001
v -2.375000 9.180000 0.250001
v -2.375000 9.180000 0.993870
v -2.375000 9.180000 1.245402
v -2.375000 9.290000 2.000001
v -2.375000 9.180000 2.000001
v -2.500000 7.539999 2.000001
v -2.000000 7.539999 2.000001
v -2.125000 9.180000 2.000001
v -2.000000 11.040000 2.000002
v -2.125000 9.290000 2.000001
v -2.500000 7.309999 2.000001
v 2.000000 7.310000 -2.499999
v 2.000000 7.540000 -2.499999
v -2.000000 7.539999 3.860711
v -2.000000 5.909999 3.860711
v -2.000000 4.509999 5.029411
v -2.000000 3.109999 6.198121
v -2.000000 1.709999 7.366830
v -2.000000 0.009999 8.535530
v -2.000000 1.709999 8.535530
v 2.000000 1.709999 8.535530
v 2.000000 0.009999 8.535530
v 2.000000 0.010000 2.500000
v 2.000000 7.309999 2.500001
v 2.000000 0.010000 -2.500000
v 2.000000 0.010002 -9.450520
v -2.000000 0.010002 -9.450520
v 2.000000 0.310002 -9.450520
v -2.000000 0.310002 -9.450520
v 2.000000 0.550211 -8.929250
v -2.000000 0.550211 -8.929250
v -2.000000 0.825221 -8.425460
v -2.000000 1.133761 -7.941490
v -2.000000 1.474421 -7.479549
v -2.000000 1.845621 -7.041790
v -2.000000 2.245651 -6.630199
v -2.000000 2.672681 -6.246699
v -2.000000 3.124731 -5.893030
v -2.000000 7.412120 -2.753299
v 2.000000 7.412120 -2.753299
v 2.000000 3.124731 -5.893030
v 2.000000 7.268940 -2.998279
v -2.000000 7.268940 -2.998279
v -2.000000 3.599731 -5.570839
v -2.000000 7.111001 -3.234009
v 2.000000 7.111001 -3.234009
v 2.000000 3.599731 -5.570839
v 2.000000 2.672681 -6.246699
v 2.000000 2.245651 -6.630199
v 2.000000 1.845621 -7.041790
v 2.000000 1.474421 -7.479549
v 2.000000 1.133761 -7.941490
v 2.000000 0.825221 -8.425460
v -2.000000 4.095481 -5.281610
v 2.000000 4.095481 -5.281610
v -2.000000 4.609711 -5.026659
v 2.000000 4.609711 -5.026659
v -2.000000 5.140051 -4.807179
v 2.000000 5.140051 -4.807179
v -2.000000 5.398191 -4.689379
v 2.000000 5.398191 -4.689379
v -2.000000 5.648621 -4.555959
v 2.000000 5.648621 -4.555959
v -2.000000 5.890391 -4.407439
v 2.000000 5.890391 -4.407439
v -2.000000 6.122601 -4.244359
v 2.000000 6.122601 -4.244359
v -2.000000 6.344370 -4.067349
v 2.000000 6.344370 -4.067349
v -2.000000 6.554871 -3.877069
v 2.000000 6.554871 -3.877069
v 2.000000 6.753291 -3.674239
v -2.000000 6.753291 -3.674239
v -2.000000 6.938900 -3.459609
v 2.000000 6.938900 -3.459609
v 2.000000 7.310000 -1.999999
v 2.000000 0.010000 -2.000000
v 2.500000 0.010000 -2.000000
v 2.500000 7.310000 -1.999999
v 2.000000 7.540000 -1.999999
v 2.500000 7.540000 -1.999999
v 2.325000 7.540000 0.000001
v 2.325000 7.540000 0.993870
v 2.325000 7.540000 1.245401
v 2.000000 7.539999 2.000001
v 2.500000 7.539999 2.000001
v 2.000000 7.309999 2.000001
v 2.500000 7.309999 2.000001
v 2.000000 0.010000 2.000000
v 2.500000 0.010000 2.000000
v 2.500000 0.010000 2.500000
v 2.500000 11.040000 2.000002
v 2.000000 7.539999 2.500001
v 2.000000 7.539999 3.860711
v 2.000000 5.909999 3.860711
v 2.000000 5.909999 5.029411
v -2.000000 5.909999 5.029411
v 2.000000 4.509999 5.029411
v 2.000000 4.509999 6.198121
v -2.000000 4.509999 6.198121
v 2.000000 3.109999 6.198121
v 2.000000 3.109999 7.366830
v 2.000000 1.709999 7.366830
v -2.000000 3.109999 7.366830
v 2.000000 11.040000 2.000002
v 2.125000 9.180000 2.000001
v 2.375000 9.180000 2.000001
v 2.375000 9.290000 2.000001
v 2.125000 9.290000 2.000001
v 2.325000 9.180000 1.245402
v 2.125000 9.180000 -1.999998
v 2.325000 9.180000 0.993870
v 2.325000 9.180000 -0.999999
v 2.375000 9.180000 -1.999998
v 2.375000 9.180000 -0.999999
v 2.375000 9.180000 -0.749999
v 2.325000 9.180000 -0.749999
v 2.325000 9.180000 0.250001
v 2.375000 9.180000 0.993870
v 2.375000 9.180000 1.245402
v 2.375000 7.540000 0.993870
v 2.375000 7.540000 1.245401
v 2.375000 9.290000 -1.999998
v 2.125000 9.290000 -1.999998
v 2.000000 11.040000 -1.999998
v 2.500000 11.040000 -2.499998
v 2.500000 0.010000 -2.500000
v 2.375000 9.180000 0.000001
v 2.375000 9.180000 0.250001
v 2.325000 7.540000 0.250001
v 2.375000 7.540000 0.250001
v 2.325000 9.180000 0.000001
v 2.375000 7.540000 0.000001
v 2.325000 7.540000 -0.749999
v 2.375000 7.540000 -0.749999
v 2.375000 7.540000 -0.999999
v 2.325000 7.540000 -0.999999
v -2.325000 9.180000 1.245402
v -2.325000 9.180000 0.993870
v -2.325000 9.180000 0.250001
v -2.325000 9.180000 0.000001
v -2.325000 9.180000 -0.749999
v -2.325000 7.540000 -0.999999
v -2.325000 7.540000 -0.749999
v -2.375000 7.540000 -0.749999
v -2.325000 7.540000 0.000001
v -2.375000 7.540000 0.000001
v -2.375000 7.540000 0.250001
v -2.325000 7.540000 0.250001
v -2.325000 7.540000 0.993870
v -2.375000 7.540000 0.993870
v -2.375000 7.540000 1.245401
v -2.325000 7.540000 1.245401
v -2.375000 7.540000 -0.999999
vn 0.0000 -0.0000 1.0000
vn -1.0000 0.0000 0.0000
vn 0.0000 0.0000 -1.0000
vn 1.0000 0.0000 0.0000
vn 0.0000 1.0000 -0.0000
vn 0.0000 1.0000 0.0006
vn 0.0000 1.0000 -0.0002
vn 0.0000 1.0000 0.0001
vn 0.0000 1.0000 0.0002
vn 0.0000 1.0000 -0.0001
vn 0.7071 0.0000 0.7071
vn 0.0000 -0.7986 0.6018
vn -0.6018 -0.7986 0.0000
vn 0.0000 -0.7986 -0.6018
vn 0.6018 -0.7986 0.0000
vn 0.0003 1.0000 -0.0000
vn 0.0000 -1.0000 0.0000
vn 0.0000 -0.2249 -0.9744
vn -0.0000 0.2249 -0.9744
vn -0.3875 0.7273 -0.5665
vn 0.9239 0.0000 -0.3827
vn -0.9239 0.2706 -0.2706
vn 0.8058 0.5922 -0.0000
vn 0.0000 0.9082 -0.4185
vn 0.0000 0.8935 -0.4491
vn 0.0000 0.8927 -0.4507
vn 0.0000 0.8784 -0.4779
vn 0.0000 0.8475 -0.5309
vn 0.0000 0.8133 -0.5818
vn 0.0000 0.5891 -0.8081
vn 0.0000 0.5329 -0.8462
vn 0.0000 0.6425 -0.7662
vn 0.0000 0.6930 -0.7209
vn 0.0000 0.7403 -0.6722
vn 0.0000 0.7842 -0.6205
vn 0.0000 0.8245 -0.5659
vn 0.0000 0.8610 -0.5086
vn 0.0000 0.4743 -0.8803
vn 0.0000 0.4135 -0.9105
vn 0.0000 0.3824 -0.9240
vn -0.0000 0.4429 -0.8966
vn 0.0000 0.4152 -0.9098
vn 0.0000 0.4152 -0.9097
vn 0.0000 0.4970 -0.8677
vn 0.0000 0.5493 -0.8356
vn 0.0000 0.5996 -0.8003
vn 0.0000 0.6475 -0.7621
vn 0.0000 0.7360 -0.6770
vn 0.0000 0.7761 -0.6306
vn 0.2723 -0.1362 -0.9525
vn 0.6770 0.3385 -0.6536
vn -0.8058 0.5922 0.0000
vn 0.0000 0.2260 -0.9741
vn -0.3875 0.7154 -0.5814
vn 0.4000 -0.2000 -0.8944
vn 0.1808 -0.0904 -0.9794
usemtl Color_H07
s 1
f 143//1 142//1 141//1
f 142//1 143//1 144//1
f 145//2 146//2 144//2
f 146//2 145//2 31//2
f 145//3 78//3 31//3
f 78//3 145//3 77//3
f 143//4 78//4 77//4
f 78//4 143//4 141//4
f 31//3 78//3 147//3
f 31//3 147//3 32//3
f 160//3 139//3 159//3
f 139//3 160//3 140//3
f 161//3 140//3 160//3
f 140//3 161//3 146//3
f 146//3 161//3 162//3
f 160//3 159//3 163//3
f 163//3 159//3 162//3
f 146//3 162//3 159//3
f 144//2 140//3 142//1
f 144//2 146//2 140//3
usemtl FrontColor
f 1//4 2//4 3//4
f 2//4 1//4 4//4
f 6//2 7//2 5//2
f 7//2 6//2 8//2
f 6//3 3//3 8//3
f 3//3 6//3 1//3
f 8//3 3//3 9//3
f 9//3 3//3 10//3
f 18//5 17//6 16//5
f 17//6 18//5 19//5
f 18//5 20//5 19//5
f 18//5 21//5 20//5
f 16//5 21//5 18//5
f 21//5 16//5 22//5
f 24//5 23//7 17//8
f 24//5 25//5 23//7
f 26//9 25//5 24//5
f 26//9 27//5 25//5
f 27//5 26//9 28//10
f 17//6 28//8 26//1
f 17//6 19//5 28//8
f 19//5 20//5 28//8
f 20//5 23//7 28//10
f 21//5 23//7 20//5
f 23//7 21//5 22//5
f 21//11 29//11 22//11
f 29//11 21//11 20//11
f 29//11 20//11 28//11
f 29//11 28//11 26//11
f 29//11 26//11 17//11
f 17//8 26//9 24//5
f 17//12 29//12 16//12
f 23//13 29//13 17//13
f 23//14 22//14 29//14
f 29//15 22//15 16//15
f 28//10 23//7 27//5
f 27//5 23//7 25//5
f 13//1 36//1 35//1
f 13//1 37//1 36//1
f 38//1 37//1 13//1
f 37//1 38//1 39//1
f 41//2 37//2 39//2
f 37//2 41//2 42//2
f 41//3 43//3 42//3
f 43//3 41//3 40//3
f 38//4 43//4 40//4
f 43//4 38//4 44//4
f 44//4 38//4 45//4
f 45//4 38//4 13//4
f 34//5 13//5 45//5
f 13//5 34//5 35//5
f 48//1 50//1 49//1
f 50//1 48//1 47//1
f 48//5 51//5 47//5
f 51//5 48//5 52//5
f 49//4 52//4 48//4
f 49//4 53//4 52//4
f 49//4 54//4 53//4
f 49//4 55//4 54//4
f 49//4 56//4 55//4
f 49//4 57//4 56//4
f 58//4 57//4 49//4
f 57//4 58//4 59//4
f 50//2 62//2 64//2
f 62//2 50//2 47//2
f 44//3 42//3 43//3
f 42//3 44//3 46//3
f 36//2 42//2 46//2
f 42//2 36//2 37//2
f 36//3 66//3 37//3
f 66//3 36//3 67//3
f 77//5 73//5 76//5
f 73//5 77//5 6//5
f 80//5 39//5 79//5
f 39//5 80//5 81//5
f 82//1 81//1 80//1
f 81//1 82//1 83//1
f 94//2 66//2 67//2
f 66//2 94//2 79//2
f 79//2 94//2 95//2
f 95//2 94//2 96//2
f 101//2 96//2 100//2
f 95//2 96//2 101//2
f 79//2 104//2 105//2
f 79//2 103//2 104//2
f 79//2 102//2 103//2
f 79//2 95//2 102//2
f 79//2 105//2 80//2
f 80//2 105//2 106//2
f 80//2 106//2 107//2
f 80//2 107//2 84//2
f 80//2 84//2 82//2
f 101//2 100//2 129//2
f 101//2 129//2 126//2
f 101//2 126//2 109//2
f 109//2 126//2 125//2
f 109//2 125//2 123//2
f 109//2 123//2 121//2
f 109//2 121//2 111//2
f 111//2 121//2 119//2
f 111//2 119//2 117//2
f 111//2 117//2 115//2
f 111//2 115//2 113//2
f 130//4 79//4 66//4
f 79//4 130//4 131//4
f 130//3 132//3 131//3
f 132//3 130//3 133//3
f 134//3 133//3 130//3
f 133//3 134//3 135//3
f 141//1 140//1 139//1
f 140//1 141//1 142//1
f 141//4 147//4 78//4
f 147//4 141//4 139//4
f 161//3 163//3 162//3
f 163//3 161//3 160//3
f 164//5 160//5 161//5
f 160//5 164//5 165//5
f 166//5 165//5 164//5
f 167//5 165//5 166//5
f 165//5 167//5 168//5
f 168//5 167//5 169//5
f 167//5 170//5 169//5
f 170//5 167//5 171//5
f 167//5 166//5 171//5
f 166//5 172//16 171//5
f 172//16 166//5 173//5
f 166//5 174//5 173//5
f 174//5 166//5 164//5
f 164//5 161//5 174//5
f 161//2 177//2 174//2
f 177//2 161//2 162//2
f 163//17 177//17 162//17
f 177//17 163//17 178//17
f 163//4 165//4 178//4
f 165//4 163//4 160//4
f 30//5 33//5 179//5
f 33//5 30//5 180//5
f 180//2 135//2 30//2
f 135//2 180//2 133//2
f 133//2 180//2 132//2
f 132//2 180//2 181//2
f 180//1 79//1 181//1
f 79//1 180//1 66//1
f 66//1 180//1 67//1
f 67//1 180//1 33//1
f 165//1 177//1 178//1
f 177//1 165//1 168//1
f 169//2 177//2 168//2
f 170//2 177//2 169//2
f 182//2 177//2 170//2
f 183//2 177//2 182//2
f 173//2 177//2 183//2
f 174//2 177//2 173//2
f 172//5 173//5 183//5
f 186//5 171//5 172//16
f 171//5 186//5 170//5
f 170//5 186//5 182//5
f 186//5 183//5 182//5
f 183//5 186//5 172//5
f 176//5 137//5 138//5
f 137//5 176//5 175//5
f 136//5 185//5 187//5
f 185//5 136//5 184//5
f 66//4 134//4 130//4
f 134//4 66//4 67//4
f 188//17 190//17 189//17
f 190//17 188//17 191//17
f 31//5 159//5 32//5
f 159//5 31//5 146//5
f 4//1 7//1 65//1
f 7//1 4//1 5//1
f 61//1 65//1 7//1
f 65//1 61//1 60//1
f 2//4 65//3 60//1
f 2//4 4//3 65//3
f 8//2 61//2 7//2
f 61//2 8//2 9//2
f 2//5 10//5 63//5
f 10//5 2//5 3//5
f 49//17 64//17 58//17
f 64//17 49//17 50//17
f 62//3 58//3 64//3
f 58//3 62//3 59//3
f 62//5 57//5 59//5
f 57//5 62//5 192//5
f 192//5 62//5 193//5
f 193//5 62//5 194//5
f 194//5 62//5 195//5
f 195//5 62//5 196//5
f 196//5 62//5 51//5
f 47//5 51//5 62//5
f 53//5 195//5 196//5
f 195//5 53//5 54//5
f 200//17 202//17 201//17
f 202//17 200//17 203//17
f 54//5 194//5 195//5
f 194//5 54//5 55//5
f 55//5 193//5 194//5
f 193//5 55//5 56//5
f 204//17 206//17 205//17
f 206//17 204//17 207//17
f 56//5 192//5 193//5
f 192//5 56//5 57//5
f 196//5 52//5 53//5
f 52//5 196//5 51//5
f 197//17 199//17 208//17
f 199//17 197//17 198//17
usemtl Color_H04
f 5//17 1//17 4//17
f 1//17 5//17 6//17
f 11//17 3//17 10//17
f 12//17 3//17 11//17
f 3//17 12//17 13//17
f 14//17 13//17 12//17
f 13//17 14//17 15//17
f 16//3 15//3 14//3
f 15//3 16//3 17//3
f 16//2 12//2 22//2
f 12//2 16//2 14//2
f 12//1 23//1 22//1
f 23//1 12//1 11//1
f 15//4 23//4 11//4
f 23//4 15//4 17//4
f 11//17 30//17 15//17
f 11//17 31//17 30//17
f 11//17 32//17 31//17
f 11//17 10//17 32//17
f 32//17 10//17 33//17
f 34//17 33//17 10//17
f 34//17 15//17 33//17
f 35//17 15//17 34//17
f 13//17 15//17 35//17
f 39//17 40//17 38//17
f 40//17 39//17 41//17
f 3//17 13//17 45//18
f 34//4 36//4 35//4
f 36//4 34//4 46//4
f 47//1 46//1 34//1
f 46//1 47//1 44//1
f 48//1 44//1 47//1
f 44//1 48//1 45//1
f 45//1 48//1 49//1
f 59//3 2//3 58//3
f 59//3 60//3 2//3
f 60//3 59//3 61//3
f 62//3 61//3 59//3
f 61//3 62//3 63//3
f 63//3 62//3 64//3
f 47//1 34//1 50//1
f 50//1 34//1 49//1
f 45//1 49//1 34//1
f 34//17 2//17 45//18
f 2//17 34//17 63//17
f 63//17 34//17 10//17
f 10//4 61//4 63//4
f 61//4 10//4 9//4
f 9//2 69//2 68//2
f 6//2 69//2 9//2
f 6//2 70//2 69//2
f 6//2 71//2 70//2
f 6//2 72//2 71//2
f 73//2 72//2 6//2
f 72//2 73//2 74//2
f 78//1 6//1 77//1
f 6//1 78//1 8//1
f 81//2 85//2 83//2
f 81//2 86//2 85//2
f 81//2 87//2 86//2
f 81//2 88//2 87//2
f 39//2 88//2 81//2
f 39//2 89//2 88//2
f 39//2 90//2 89//2
f 39//2 91//2 90//2
f 39//2 92//2 91//2
f 39//2 93//2 92//2
f 37//2 93//2 39//2
f 93//2 37//2 36//2
f 92//2 93//2 97//2
f 92//2 97//2 98//2
f 98//2 97//2 99//2
f 108//2 127//2 124//2
f 98//2 127//2 108//2
f 98//2 128//2 127//2
f 98//2 99//2 128//2
f 108//2 124//2 122//2
f 108//2 122//2 120//2
f 108//2 120//2 110//2
f 110//2 120//2 118//2
f 110//2 118//2 116//2
f 110//2 116//2 114//2
f 110//2 114//2 112//2
f 144//17 77//17 143//17
f 77//17 144//17 145//17
f 69//2 70//2 151//2
f 70//2 71//2 154//2
f 155//4 77//4 153//4
f 156//4 77//4 155//4
f 157//4 77//4 156//4
f 75//4 77//4 157//4
f 77//4 75//4 76//4
f 71//2 72//2 158//2
f 153//4 77//4 152//4
f 152//4 77//4 150//4
f 150//4 77//4 149//4
f 149//4 77//4 148//4
f 148//4 77//4 147//4
f 147//3 77//3 78//3
f 159//2 147//2 32//2
f 147//2 159//2 139//2
f 159//17 30//17 146//17
f 30//17 159//17 179//19
f 32//17 179//19 159//17
f 32//17 33//17 179//19
f 33//17 15//17 180//17
f 180//17 15//17 30//17
f 134//2 33//2 67//2
f 33//2 134//2 179//2
f 134//1 165//1 179//1
f 165//1 134//1 168//1
f 135//1 168//1 134//1
f 168//1 135//1 30//1
f 168//1 30//1 177//1
f 177//1 30//1 178//1
f 179//1 178//1 30//1
f 179//1 165//1 178//1
f 181//17 131//17 79//17
f 131//17 181//17 132//17
f 146//17 30//17 31//17
f 6//2 9//2 8//4
f 3//17 45//18 2//17
f 63//3 64//3 2//3
f 58//3 2//3 64//3
usemtl Color_D04
f 46//5 61//20 9//21
f 44//5 61//20 46//5
f 61//5 44//5 60//5
f 44//2 65//2 60//2
f 65//2 44//2 43//2
f 36//5 68//5 67//5
f 46//22 68//5 36//5
f 46//22 9//23 68//5
f 73//1 75//1 74//1
f 75//1 73//1 76//1
f 8//17 66//17 78//17
f 42//17 66//17 8//17
f 66//17 42//17 37//17
f 39//1 66//1 37//1
f 66//1 39//1 79//1
f 83//24 84//25 82//24
f 84//25 83//24 85//25
f 67//26 93//27 36//26
f 93//27 67//26 94//27
f 97//28 94//27 96//28
f 94//27 97//28 93//27
f 96//28 99//29 97//28
f 99//29 96//28 100//29
f 95//30 98//31 101//31
f 98//31 95//30 92//30
f 102//32 92//30 95//30
f 92//30 102//32 91//32
f 103//33 91//32 102//32
f 91//32 103//33 90//33
f 104//34 90//33 103//33
f 90//33 104//34 89//34
f 104//34 88//35 89//34
f 88//35 104//34 105//35
f 87//36 105//35 106//36
f 105//35 87//36 88//35
f 106//36 86//37 87//36
f 86//37 106//36 107//37
f 84//25 86//37 107//37
f 86//37 84//25 85//25
f 108//38 101//31 98//31
f 101//31 108//38 109//38
f 110//39 109//38 108//38
f 109//38 110//39 111//39
f 112//40 111//39 110//39
f 111//39 112//40 113//40
f 114//41 113//42 112//42
f 113//43 114//41 115//41
f 116//44 115//41 114//41
f 115//41 116//44 117//44
f 118//45 117//44 116//44
f 117//44 118//45 119//45
f 120//46 119//45 118//45
f 119//45 120//46 121//46
f 122//47 121//46 120//46
f 121//46 122//47 123//47
f 124//33 123//47 122//47
f 123//47 124//33 125//33
f 124//33 126//48 125//33
f 126//48 124//33 127//48
f 100//29 128//49 99//29
f 128//49 100//29 129//49
f 127//48 129//49 126//48
f 129//49 127//48 128//49
f 134//50 136//5 135//5
f 136//5 134//50 137//5
f 137//5 134//50 138//5
f 139//51 138//5 134//50
f 138//5 139//51 140//5
f 67//5 147//52 139//51
f 67//5 148//5 147//52
f 67//5 68//5 148//5
f 69//1 148//1 68//1
f 148//1 69//1 149//1
f 69//5 150//5 149//5
f 150//5 69//5 151//5
f 70//1 150//1 151//1
f 150//1 70//1 152//1
f 70//5 153//5 152//5
f 153//5 70//5 154//5
f 155//1 154//1 71//1
f 154//1 155//1 153//1
f 72//5 75//5 157//5
f 75//5 72//5 74//5
f 156//1 72//1 157//1
f 72//1 156//1 158//1
f 156//5 71//5 158//5
f 71//5 156//5 155//5
f 166//2 138//2 164//2
f 138//2 166//2 137//2
f 166//3 175//3 137//3
f 175//3 166//3 173//3
f 174//4 175//4 173//4
f 175//4 174//4 176//4
f 174//1 138//1 176//1
f 138//1 174//1 164//1
f 184//1 183//1 172//1
f 183//1 184//1 185//1
f 184//53 175//5 185//5
f 175//5 184//53 137//5
f 136//5 137//5 184//53
f 184//2 186//2 136//2
f 186//2 184//2 172//2
f 183//4 187//4 182//4
f 187//4 183//4 185//4
f 185//5 140//5 187//5
f 175//5 140//5 185//5
f 176//5 140//5 175//5
f 138//5 140//5 176//5
f 135//5 187//5 140//5
f 135//5 136//5 187//5
f 186//3 187//3 136//3
f 187//3 186//3 182//3
f 140//4 133//4 135//4
f 133//4 140//4 142//4
f 141//17 133//17 142//17
f 133//17 141//54 130//55
f 78//17 130//55 141//54
f 78//17 66//17 130//55
f 67//5 139//51 134//50
f 188//1 170//1 171//1
f 170//1 188//1 189//1
f 188//2 167//2 191//2
f 167//2 188//2 171//2
f 167//3 190//3 191//3
f 190//3 167//3 169//3
f 170//4 190//4 169//4
f 190//4 170//4 189//4
f 7//56 42//17 8//17
f 65//17 42//17 7//56
f 42//17 65//17 43//17
f 196//4 197//4 51//4
f 197//4 196//4 198//4
f 196//1 199//1 198//1
f 199//1 196//1 53//1
f 200//3 54//3 195//3
f 54//3 200//3 201//3
f 200//4 194//4 203//4
f 194//4 200//4 195//4
f 54//2 202//2 55//2
f 202//2 54//2 201//2
f 202//1 194//1 55//1
f 194//1 202//1 203//1
f 204//3 56//3 193//3
f 56//3 204//3 205//3
f 204//4 192//4 207//4
f 192//4 204//4 193//4
f 56//2 206//2 57//2
f 206//2 56//2 205//2
f 206//1 192//1 57//1
f 192//1 206//1 207//1
f 197//3 52//3 51//3
f 52//3 197//3 208//3
f 199//2 52//2 208//2
f 52//2 199//2 53//2
